# xmcd CD database file
#
# Track frame offsets:
#	150
#	19169
#	30126
#	45244
#	56960
#	69349
#	86433
#	101613
#	113205
#	126369
#	147353
#	158114
#	167518
#	183464
#	195751
#	207670
#	220690
#	233502
#	244511
#	264719
#	277623
#	287573
#	297861
#	306441
#
# Disc length: 4268 seconds
#
# Revision: 0
# Processed by: cddbd v1.5.2PL0 Copyright (c) Steve Scherf et al.
# Submitted via: CDex 1.79
#
DISCID=4b10aa18
DTITLE=Kenny Hall and The New Santa Fe Rumblers - North Sanger Blues
DYEAR=2005
DGENRE=Blues
TTITLE0=Sail Away Ladies
TTITLE1=Westfork Girls
TTITLE2=Hawaiian Blues
TTITLE3=Cherokee Shuffle
TTITLE4=Worried Man Blues
TTITLE5=Noah's Snoa
TTITLE6=Jordan is a Hard Road to Travel
TTITLE7=Take Me Back to Texas
TTITLE8=Mississippi Sawyer
TTITLE9=My Creole Belle
TTITLE10=Seneca Square Dance
TTITLE11=Bill Cheatham
TTITLE12=Jack of Diamonds
TTITLE13=Bright Shines the Moon
TTITLE14=# 3 on the Jukebox - Sicilian Polka
TTITLE15=Texas State Anthem
TTITLE16=Boatman
TTITLE17=All Night Long
TTITLE18='T' for Texas
TTITLE19=Uncle Bud/Sugar in the Gourd
TTITLE20=Black-Eyed Suzie
TTITLE21=Whiskey Before Breakfast
TTITLE22=Indian War Whoop
TTITLE23=North Sanger Blues
EXTD=YEAR: 2005
EXTT0=
EXTT1=
EXTT2=
EXTT3=
EXTT4=
EXTT5=
EXTT6=
EXTT7=
EXTT8=
EXTT9=
EXTT10=
EXTT11=
EXTT12=
EXTT13=
EXTT14=
EXTT15=
EXTT16=
EXTT17=
EXTT18=
EXTT19=
EXTT20=
EXTT21=
EXTT22=
EXTT23=
PLAYORDER=
